<?xml version="1.0" standalone="no"?>
<!DOCTYPE svg PUBLIC "-//W3C//DTD SVG 20010904//EN"
 "http://www.w3.org/TR/2001/REC-SVG-20010904/DTD/svg10.dtd">
<svg version="1.0" xmlns="http://www.w3.org/2000/svg"
 width="628.000000pt" height="617.000000pt" viewBox="0 0 628.000000 617.000000"
 preserveAspectRatio="xMidYMid meet">

<g transform="translate(0.000000,617.000000) scale(0.100000,-0.100000)"
fill="#000000" stroke="none">
<path d="M2770 5773 c-568 -32 -1118 -244 -1572 -607 l-127 -101 -36 -85 c-19
-47 -42 -113 -50 -147 -35 -148 -75 -652 -75 -934 0 -135 0 -137 27 -168 l27
-31 143 0 142 0 15 28 c37 71 125 122 210 122 56 0 137 -41 172 -87 76 -100
62 -229 -36 -317 l-42 -38 40 -81 c52 -108 91 -160 204 -274 155 -158 295
-264 563 -425 134 -80 475 -258 522 -272 17 -5 53 10 142 60 66 37 119 70 117
72 -2 2 -17 -3 -34 -12 -34 -18 -52 -7 -53 34 0 23 -1 23 -9 5 -7 -16 -9 -13
-9 17 -1 31 -4 36 -18 31 -10 -3 -1 13 22 38 22 24 7 13 -33 -26 l-72 -69 -76
74 c-114 112 -367 395 -441 492 -15 21 -60 79 -99 130 -196 256 -328 493 -381
684 -24 89 -27 116 -27 264 -1 179 10 237 74 396 64 161 214 343 375 454 118
81 302 150 454 170 153 20 252 8 511 -61 8 -2 18 -8 22 -14 4 -5 8 15 8 45 0
39 3 51 10 40 5 -8 10 -10 10 -4 0 14 -25 36 -32 29 -2 -3 -5 2 -5 9 0 16 17
17 30 1 5 -5 6 -1 3 11 -6 18 -2 21 35 22 35 2 40 0 30 -12 -14 -17 4 -17 29
-1 8 6 29 11 45 11 58 3 85 8 85 17 0 4 4 6 9 2 5 -3 16 2 24 10 9 8 17 10 19
5 2 -6 14 -12 27 -15 21 -4 23 -1 19 30 -3 27 0 35 12 35 10 0 25 9 35 20 14
16 20 17 27 8 6 -10 8 -9 8 2 0 13 1 13 10 0 6 -10 10 -11 10 -2 0 6 8 12 18
11 10 0 12 -3 5 -6 -7 -2 -13 -12 -13 -21 0 -11 3 -13 8 -6 4 6 15 13 25 17
15 6 22 25 18 50 -1 5 3 6 9 2 5 -3 10 -12 10 -20 0 -8 4 -16 9 -20 5 -3 1 19
-10 49 -10 30 -22 86 -25 125 -8 78 1 71 -124 110 -229 70 -545 128 -659 119
-27 -1 -47 0 -44 5 4 7 -146 7 -267 0z m133 -10 c-13 -2 -35 -2 -50 0 -16 2
-5 4 22 4 28 0 40 -2 28 -4z m190 -10 c-7 -2 -19 -2 -25 0 -7 3 -2 5 12 5 14
0 19 -2 13 -5z m264 -625 c-3 -8 -6 -5 -6 6 -1 11 2 17 5 13 3 -3 4 -12 1 -19z
m-320 -2600 c-3 -8 -6 -5 -6 6 -1 11 2 17 5 13 3 -3 4 -12 1 -19z"/>
<path d="M4404 5565 c0 -82 2 -115 3 -72 2 43 2 110 0 150 -1 40 -3 5 -3 -78z"/>
<path d="M4422 5445 c0 -16 2 -22 5 -12 2 9 2 23 0 30 -3 6 -5 -1 -5 -18z"/>
<path d="M3943 5301 c0 -11 4 -19 7 -19 18 2 21 -4 10 -17 -7 -9 -8 -15 -2
-15 19 0 20 26 1 48 -17 21 -18 21 -16 3z"/>
<path d="M3870 5295 c-11 -13 -10 -14 4 -9 9 3 16 10 16 15 0 13 -6 11 -20 -6z"/>
<path d="M3900 5289 c0 -5 4 -8 9 -5 5 4 12 0 14 -6 3 -8 6 -6 6 5 1 9 -6 17
-14 17 -8 0 -15 -5 -15 -11z"/>
<path d="M3401 5214 c0 -11 3 -14 6 -6 3 7 2 16 -1 19 -3 4 -6 -2 -5 -13z"/>
<path d="M708 4682 c-147 -200 -283 -421 -373 -602 -50 -100 -129 -289 -150
-357 l-6 -23 249 0 250 0 26 34 26 35 0 211 c0 217 13 468 34 668 7 61 9 112
6 112 -3 -1 -30 -35 -62 -78z"/>
<path d="M2854 4711 c-210 -34 -381 -180 -455 -391 -18 -52 -23 -86 -23 -170
0 -105 17 -196 34 -185 6 3 7 -1 4 -9 -13 -35 118 -225 177 -257 17 -9 19 -6
18 23 0 25 -2 28 -8 15 -7 -18 -8 -18 -21 -1 -13 15 -13 16 -1 9 11 -6 13 -4
6 11 -12 28 -16 132 -5 139 6 4 5 14 -2 25 -10 16 -9 23 10 43 16 16 19 26 11
34 -8 8 -4 17 13 33 12 13 16 19 8 15 -12 -6 -13 -5 -2 6 6 7 12 24 13 38 0
18 3 21 7 11 10 -22 32 -23 32 -1 0 11 -6 22 -12 24 -10 4 -10 6 0 6 6 1 12 6
12 12 0 5 -6 7 -12 3 -8 -5 -7 -1 2 10 8 11 16 14 18 7 2 -6 12 -1 23 11 10
13 18 19 19 14 1 -22 30 19 30 43 0 20 2 23 10 11 7 -10 10 -11 11 -2 3 29 22
70 34 74 5 2 8 16 6 32 -2 17 1 26 8 22 5 -4 13 -1 18 6 12 19 87 85 78 69 -5
-9 -4 -12 3 -7 7 4 12 13 12 20 0 8 10 13 23 12 12 0 21 4 20 9 -1 10 26 40
37 40 3 0 4 3 3 8 -2 4 2 6 9 5 6 -2 17 7 23 20 7 13 16 22 21 21 5 -1 18 17
30 39 11 23 24 39 27 35 4 -3 7 -3 7 1 0 4 -10 16 -22 27 -17 13 -19 19 -8 20
8 0 2 5 -15 10 -45 13 -173 19 -231 10z m-114 -507 c0 -8 -19 -13 -24 -6 -3 5
1 9 9 9 8 0 15 -2 15 -3z"/>
<path d="M2620 3685 c0 -2 7 -8 15 -15 12 -10 15 -10 15 2 0 8 -7 15 -15 15
-8 0 -15 -1 -15 -2z"/>
<path d="M122 3458 c-36 -200 -44 -313 -40 -574 3 -144 8 -266 12 -273 5 -8
91 -11 302 -11 l295 0 34 33 33 32 -14 220 c-7 121 -14 304 -14 406 0 252 32
229 -321 229 l-276 0 -11 -62z"/>
<path d="M927 3502 c-21 -23 -22 -93 -6 -525 l11 -307 35 -35 35 -35 530 0
529 0 -122 93 c-288 216 -487 462 -531 653 -11 45 -17 53 -60 77 -26 15 -58
43 -70 62 l-23 35 -156 0 c-138 0 -158 -2 -172 -18z"/>
<path d="M130 2400 c0 -26 59 -251 91 -347 l31 -93 406 0 407 0 -67 60 c-78
71 -131 148 -169 244 -17 43 -37 77 -51 85 -13 8 -34 25 -48 38 -25 22 -30 22
-313 25 -250 3 -287 1 -287 -12z"/>
<path d="M969 2387 c-16 -22 -15 -26 15 -87 48 -100 148 -194 270 -255 88 -45
106 -50 176 -53 l77 -4 24 43 c15 27 42 54 72 73 41 25 59 30 115 30 56 1 75
-4 114 -27 85 -50 133 -156 109 -243 -15 -56 -64 -121 -106 -141 -33 -16 -35
-20 -35 -65 l0 -49 45 33 c283 207 487 347 723 492 79 49 142 90 140 91 -2 1
-55 29 -118 61 -63 32 -141 73 -173 91 l-59 33 -686 0 -687 -1 -16 -22z"/>
<path d="M2907 2069 c-21 -11 -35 -24 -32 -29 4 -6 -1 -7 -11 -3 -13 5 -15 3
-9 -7 5 -9 4 -11 -3 -6 -11 7 -200 -105 -443 -263 l-124 -81 346 0 c357 0 499
6 499 22 0 5 -4 7 -9 4 -5 -4 -12 0 -14 6 -4 10 -6 10 -6 1 -1 -7 -8 -13 -17
-13 -14 0 -14 3 -4 16 11 12 11 15 0 12 -7 -2 -19 8 -27 22 -7 14 -13 20 -13
14 0 -21 -26 -23 -27 -2 -1 12 -11 30 -22 42 -12 12 -21 28 -21 34 0 7 -6 11
-12 10 -7 -2 -12 3 -10 10 1 7 -2 30 -7 51 -6 27 -5 43 3 52 8 9 8 10 -2 4
-11 -5 -13 0 -10 25 1 18 -1 31 -7 30 -5 -1 -9 -6 -8 -10 1 -5 -5 -7 -15 -5
-9 2 -21 4 -27 5 -5 0 -2 5 8 11 9 6 14 15 11 21 -4 6 -3 8 4 4 6 -3 17 0 25
8 8 8 17 13 19 11 3 -3 5 2 5 10 0 8 -1 15 -1 15 -1 -1 -18 -10 -39 -21z"/>
<path d="M310 1814 c0 -3 31 -67 70 -143 126 -248 295 -482 489 -679 l102
-102 197 184 c168 157 359 325 448 395 23 18 24 25 24 124 l0 104 -39 26 c-22
15 -52 42 -66 62 l-27 35 -599 0 c-330 0 -599 -3 -599 -6z"/>
<path d="M2073 1511 c-29 -4 -65 -23 -117 -61 -41 -30 -75 -57 -75 -60 -1 -3
61 -39 137 -80 75 -40 218 -118 317 -173 99 -55 243 -133 321 -174 l141 -73
231 0 232 0 0 253 0 252 -33 16 c-17 8 -45 34 -62 57 l-30 41 -497 0 c-273 1
-502 3 -510 4 -7 2 -32 1 -55 -2z"/>
<path d="M3470 1423 c-77 -60 -72 -63 107 -61 87 1 122 3 78 5 -99 4 -115 7
-145 33 -22 19 -23 21 -5 40 25 28 17 24 -35 -17z"/>
<path d="M1595 1157 c-71 -61 -200 -180 -285 -264 l-155 -153 30 -26 c58 -50
311 -213 415 -267 125 -66 276 -132 417 -181 195 -67 519 -136 643 -136 l42 0
-4 303 c-2 166 -8 310 -12 320 -5 9 -54 40 -110 68 -55 28 -105 55 -111 59 -9
7 -184 103 -597 327 -64 34 -123 63 -130 63 -7 -1 -71 -51 -143 -113z"/>
<path d="M3948 1213 c7 -3 16 -2 19 1 4 3 -2 6 -13 5 -11 0 -14 -3 -6 -6z"/>
<path d="M3888 1203 c7 -3 16 -2 19 1 4 3 -2 6 -13 5 -11 0 -14 -3 -6 -6z"/>
<path d="M3755 1191 c3 -5 0 -13 -6 -17 -8 -4 -9 -3 -5 4 5 9 -36 12 -158 12
l-166 0 0 -152 0 -153 192 -2 c114 -2 195 -7 200 -13 4 -5 5 -8 2 -5 -12 8
-34 -17 -34 -39 0 -17 -2 -18 -10 -6 -8 12 -10 9 -10 -13 0 -20 -4 -26 -12
-21 -10 6 -10 4 0 -7 6 -7 12 -17 12 -21 0 -4 -76 -8 -170 -8 l-170 0 0 -295
c0 -266 2 -295 16 -295 42 0 265 57 409 105 254 83 561 231 559 268 0 9 -2
142 -4 295 -2 152 -6 246 -9 207 -3 -38 -9 -65 -14 -58 -5 8 -30 10 -77 7 -55
-3 -70 -1 -70 10 0 8 -8 13 -17 11 -10 -1 -24 3 -32 9 -8 6 -22 11 -31 11 -9
0 -24 6 -33 13 -9 8 -22 12 -29 10 -16 -6 -47 21 -59 49 -5 15 -14 21 -24 17
-8 -3 -15 -1 -15 5 0 6 -6 10 -12 8 -7 -1 -12 4 -10 12 3 12 0 12 -12 2 -11
-9 -16 -9 -22 0 -4 8 -3 9 4 5 7 -4 12 -1 12 8 0 8 -7 13 -17 11 -10 -1 -24 2
-31 8 -9 7 -16 7 -20 1 -5 -7 -15 -6 -30 2 -17 8 -20 13 -10 17 7 3 -11 6 -40
6 -31 1 -51 -3 -47 -8z"/>
<path d="M5015 1020 c-4 -6 -16 -10 -27 -8 -14 2 -22 -3 -24 -15 -1 -10 2 -14
8 -11 7 4 8 2 4 -5 -10 -15 -26 -5 -27 17 0 14 -2 13 -9 -3 l-9 -20 0 20 c-1
12 -4 16 -9 10 -7 -11 -29 -15 -89 -18 -17 -1 -31 -6 -30 -12 1 -5 -8 -9 -20
-9 -13 1 -23 -3 -23 -8 0 -6 -7 -8 -14 -5 -10 4 -13 1 -9 -9 3 -9 -2 -14 -15
-14 -11 0 -22 -5 -24 -11 -6 -19 -96 -14 -110 6 -4 6 -8 1 -9 -10 -1 -14 -4
-10 -9 10 -5 18 -8 -39 -9 -138 -1 -132 2 -167 12 -161 68 41 272 212 372 313
49 50 87 91 83 91 -4 0 -10 -5 -13 -10z"/>
<path d="M2850 721 c-6 -12 -10 -128 -10 -312 l0 -292 206 5 c113 3 210 10
215 15 5 5 8 128 7 304 l-3 294 -202 3 c-192 2 -203 1 -213 -17z"/>
</g>
</svg>
